<svg height="512" viewBox="0 0 60 60" width="512" xmlns="http://www.w3.org/2000/svg"><g id="044---Mochi" fill="none"><g id="Layer_4" transform="translate(1 1)"><path id="Shape" d="m40 17v1.09c-.65-.06-1.32-.09-2-.09-.34 0-.67 0-1 .02-.16.007-.32.02-.48.03-6.0139636.342801-11.5921129 3.2483905-15.32 7.98-.4-.02-.8-.03-1.2-.03-.51 0-1.01.02-1.5.05-3.2622488.213893-6.4342645 1.1607123-9.28 2.77-.30290243.1574141-.59519212.3344581-.875.53-.2-.11-.405-.21-.6-.33-4.715-2.63-7.745-6.88-7.745-12.02 0-8.44 8.15-16.25 18.5-16.95.49-.03.99-.05 1.5-.05 11.05 0 20 8.16 20 17z" fill="#cad9fc"/><path id="Shape" d="m37 17v1.02l-.48.03c-6.0139636.342801-11.5921129 3.2483905-15.32 7.98-.4-.02-.8-.03-1.2-.03-.51 0-1.01.02-1.5.05-3.2622488.213893-6.4342645 1.1607123-9.28 2.77l-1.47.2c-4.72-2.63-7.75-6.88-7.75-12.02 0-8.44 8.15-16.25 18.5-16.95 10.35.7 18.5 8.51 18.5 16.95z" fill="#e8edfc"/><path id="Shape" d="m58 35c0 8.84-8.95 15-20 15h-.14c1.3992028-2.0659161 2.144821-4.5048538 2.14-7 0-8.52-8.31-16.4-18.8-16.97 3.7278871-4.7316095 9.3060364-7.637199 15.32-7.98.16-.01.32-.023.48-.03.33-.015.66-.02 1-.02.68 0 1.35.03 2 .09 10.11.91 18 8.61 18 16.91z" fill="#cad9fc"/><path id="Shape" d="m55 35c0 8.04-7.39 13.85-17.04 14.84 1.3366696-2.0303253 2.0461537-4.4091835 2.04-6.84 0-8.52-8.31-16.4-18.8-16.97 3.7278871-4.7316095 9.3060364-7.637199 15.32-7.98 10.34.71 18.48 8.52 18.48 16.95z" fill="#e8edfc"/><path id="Shape" d="m40 43c-.0154729 2.4276389-.7231644 4.8004868-2.04 6.84-.0302933.0551742-.0636798.1085926-.1.16-3.29 4.92-10.05 8-17.86 8-.51 0-1.01-.01-1.5-.04-10.35-.53-18.5-6.52-18.5-14.96 0-5.36 3.3-10.46 8.345-13.65.27980788-.1955419.57209757-.3725859.875-.53 2.8457355-1.6092877 6.0177512-2.556107 9.28-2.77.49-.03.99-.05 1.5-.05.4 0 .8.01 1.2.03 10.49.57 18.8 8.45 18.8 16.97z" fill="#cad9fc"/><path id="Shape" d="m37 43c0 8.44-8.15 14.43-18.5 14.96-10.35-.53-18.5-6.52-18.5-14.96s8.15-16.25 18.5-16.95c10.35.7 18.5 8.51 18.5 16.95z" fill="#e8edfc"/></g><path id="Shape" d="m3 43c0-5.594 3.551-10.615 8.34-13.65-16.168-8.891-6.648-28.078 10-29.289-.447-.028-.89-.061-1.34-.061-17.655 0-28.359 20.167-11.66 29.35-4.789 3.035-8.34 8.056-8.34 13.65 0 10.158 11.089 15.5 21.649 14.956-9.558-.511-18.649-5.756-18.649-14.956z" fill="#fff" transform="translate(1 1)"/><path id="Shape" d="m4.281 50.878-1.614 1.181c-1.70639891-2.3431298-2.6387661-5.1605078-2.667-8.059h2c.02735504 2.4739565.824613 4.8779636 2.281 6.878z" fill="#fff"/><g fill="#428dff"><path id="Shape" d="m2.6 47.612c-.1980871-.4897637-.7237187-.7619203-1.238-.641-.26780279.0635015-.4946724.2404847-.62143211.4847852-.12675971.2443006-.1408399.5316934-.03856789.7872148.07051166.2680337.25513258.4916018.50499564.6115283.24986307.1199266.53977684.1241205.79300436.0114717.48065292-.2141006.73486088-.7453952.6-1.254z"/><circle id="Oval" cx="23" cy="32" r="1"/><circle id="Oval" cx="17" cy="31" r="1"/><circle id="Oval" cx="19" cy="36" r="1"/><circle id="Oval" cx="12" cy="34" r="1"/><circle id="Oval" cx="29" cy="34" r="1"/><circle id="Oval" cx="26" cy="39" r="1"/><circle id="Oval" cx="34" cy="38" r="1"/><circle id="Oval" cx="6" cy="41" r="1"/><circle id="Oval" cx="13" cy="39" r="1"/><circle id="Oval" cx="11" cy="44" r="1"/><circle id="Oval" cx="22" cy="43" r="1"/><circle id="Oval" cx="32" cy="44" r="1"/><circle id="Oval" cx="23" cy="6" r="1"/><circle id="Oval" cx="17" cy="5" r="1"/><circle id="Oval" cx="19" cy="10" r="1"/><circle id="Oval" cx="12" cy="8" r="1"/><circle id="Oval" cx="29" cy="8" r="1"/><circle id="Oval" cx="26" cy="13" r="1"/><circle id="Oval" cx="34" cy="12" r="1"/><circle id="Oval" cx="6" cy="15" r="1"/><circle id="Oval" cx="13" cy="13" r="1"/><circle id="Oval" cx="11" cy="18" r="1"/><circle id="Oval" cx="22" cy="17" r="1"/><path id="Shape" d="m41.99 18.214c0-.072.01-.143.01-.214 0-9.757-9.617-18-21-18s-21 8.243-21 18c0 5.032 2.72 9.5 7.511 12.45-4.536 3.358-7.511 8.274-7.511 13.55 0 .5522847.44771525 1 1 1s1-.4477153 1-1c0-8.523 8.878-16 19-16s19 7.477 19 16c0 7.981-8.168 14-19 14-6.24-.046-13.021-2.129-16.719-7.122-.327783-.4407114-.94966247-.5345724-1.39291531-.2102344-.44325283.3243381-.54195806.9454671-.22108469 1.3912344 4.081 5.517 11.4 7.891 18.333 7.941 8.1 0 14.837-3.154 18.358-8.013 11.791-.137 20.642-6.958 20.642-15.987 0-8.887-7.985-16.5-18.01-17.786zm-32.628 11c-4.682-2.575-7.362-6.635-7.362-11.214 0-8.523 8.878-16 19-16s19 7.477 19 16v.045c-.333-.014-.662-.045-1-.045-6.6714387-.0743292-13.0185848 2.8726257-17.267 8.017-.244-.008-.488-.017-.733-.017-4.0974684.0084841-8.1172242 1.1189425-11.638 3.215zm31.227 20.73c.9251758-1.845009 1.408252-3.880023 1.411-5.944 0-8.663-8.011-16.364-17.808-17.77 3.887485-3.9980088 9.2315902-6.2463729 14.808-6.23 10.122 0 19 7.477 19 16 0 7.585-7.382 13.386-17.411 13.945z"/><circle id="Oval" cx="41" cy="24" r="1"/><circle id="Oval" cx="35" cy="23" r="1"/><circle id="Oval" cx="37" cy="28" r="1"/><circle id="Oval" cx="44" cy="36" r="1"/><circle id="Oval" cx="47" cy="26" r="1"/><circle id="Oval" cx="44" cy="31" r="1"/><circle id="Oval" cx="52" cy="30" r="1"/><circle id="Oval" cx="50" cy="36" r="1"/></g></g></svg>